<svg xmlns="http://www.w3.org/2000/svg" xmlns:xlink="http://www.w3.org/1999/xlink" width="2057.32" height="2283.586" viewBox="0 0 2057.32 2283.586"><defs><linearGradient id="a" x1="0.5" x2="0.5" y2="1" gradientUnits="objectBoundingBox"><stop offset="0" stop-color="#fff"/><stop offset="0.532" stop-color="#f9f9f9"/><stop offset="1" stop-color="#efefef"/><stop offset="1" stop-color="#7e7e7e"/></linearGradient></defs><g transform="translate(403 -406)"><rect width="2057.32" height="2283.586" transform="translate(-403 406)" fill="url(#a)"/><g transform="translate(-403 1116.231)"><g opacity="0.1"><path d="M.884,376.081l172.208-4.8-.16.053L576.962,51.026l.346-.274.45.185,632.906,259.214-.789.017,262.158-122.724.375-.176.345.205,284.228,169.134-.445-.047,300.69-89.252-300.356,89.807-.243.073-.2-.12L1471.978,188.117l.722.029-262,122.891-.385.182-.4-.165L577.117,51.708l.8-.089L173.272,371.548l-.065.051-.1,0Z" transform="translate(0.094 -50.752)" fill="#414141"/><path d="M1.014,384.613l167.961-7.942-.154.052L569.2,62.174l.326-.257.437.158,162.188,58.33,81.1,29.166,20.275,7.291,19.635,8.1L892.4,181.208,1206.227,311.3h-.748l263.667-108.037.364-.148.324.189,34.614,20.358,4.328,2.544,4.528,2.368,9.074,4.72,18.148,9.44,72.587,37.761,72.585,37.762c6.157,3.047,11.816,6.546,17.659,9.881l17.424,10.092,34.849,20.186-.422-.05,301.918-77.608L1755.5,358.934l-.232.061-.189-.11-34.866-20.158-17.433-10.079c-5.843-3.33-11.506-6.822-17.667-9.867l-72.64-37.716-72.639-37.716-18.16-9.429L1512.6,229.2l-4.533-2.363-4.334-2.544-34.667-20.349.686.04L1206.225,312.2l-.376.154-.374-.155-313.86-130L852.4,165.927l-19.625-8.114-20.261-7.3L731.469,121.3,569.382,62.87l.763-.1L169.158,376.935l-.063.049-.091,0Z" transform="translate(0.108 -48.673)" fill="#414141"/><path d="M1.143,393.145l163.713-11.084-.145.051L561.434,73.322l.308-.24.421.131L828.2,155.89l.043.013.04.017,373.512,156.532-.708-.018,265.179-93.349.348-.123.3.174,39.547,22.988-.058-.03,182.756,81.413.022.01.022.012,65.075,36.7-.4-.053,303.146-65.963-302.89,66.54-.22.048-.179-.1-65.125-36.656.043.021L1505.79,242.773l-.03-.013-.028-.016-39.579-22.962.648.052-265.054,93.525-.36.127-.348-.145L827.49,156.851l.083.03L561.648,74.029l.728-.109-397.333,308.4-.059.045-.087.006Z" transform="translate(0.122 -46.594)" fill="#414141"/><path d="M1.272,401.678l159.465-14.227-.137.049L553.669,84.47l.29-.223.4.106,268.051,70.4.067.018.061.026,374.818,158.8-.663-.034,266.69-78.662.33-.1.276.159,39.989,22.977-.1-.044,182.854,67.8.037.014.033.018,66.117,36.306-.374-.054,304.372-54.32L1752.767,362.57l-.2.037-.167-.091-66.166-36.262.07.032-182.948-67.679-.05-.019-.045-.025-40.018-22.95.606.061-266.581,78.841-.345.1-.318-.135L821.743,155.722l.128.044L553.915,85.188l.692-.117L160.929,387.71l-.055.043-.081.007Z" transform="translate(0.135 -44.515)" fill="#414141"/><path d="M1.4,410.21l155.216-17.37-.126.047L545.9,95.619l.27-.206.383.082,270.066,58.122.092.02.083.035,376.124,161.077-.616-.047,268.2-63.975.31-.074.254.144,40.427,22.965-.137-.057,182.954,54.191.055.016.048.026,67.155,35.912-.345-.056,305.6-42.678L1751.4,364.386l-.191.027-.157-.083-67.205-35.866.1.041L1500.917,274.44l-.073-.022-.064-.036-40.457-22.937.566.07-268.111,64.158-.325.078-.293-.126L816,154.594l.174.055-269.986-58.3.652-.124L156.813,393.1l-.052.039-.075.009Z" transform="translate(0.149 -42.435)" fill="#414141"/><path d="M1.53,418.743,152.5,398.231l-.117.046L538.138,106.768l.251-.19.359.061,272.082,45.844.119.02.106.045L1188.485,315.9l-.566-.06,269.711-49.289.288-.053.231.131,40.865,22.952-.184-.069,183.054,40.579.075.017.064.034,68.2,35.518-.318-.056,306.821-31.036-306.7,31.637-.176.018-.144-.075-68.248-35.471.139.05-183.11-40.453-.1-.022-.083-.047-40.9-22.925.52.078-269.641,49.474-.3.055-.266-.115-377.472-163.3.223.065L538.453,107.5l.609-.128L152.7,398.484l-.049.036-.069.009Z" transform="translate(0.163 -40.356)" fill="#414141"/><path d="M1.66,427.275l146.715-23.654-.108.043L530.372,117.917l.231-.173.335.041,274.1,33.567.146.018.126.055,378.741,165.621-.516-.07,271.223-34.6.263-.034.209.117,41.3,22.94-.234-.077,183.153,26.967.1.015.082.041,69.239,35.125-.292-.056,308.046-19.395-307.967,20-.162.01-.131-.067-69.288-35.077.181.056L1496.064,306.1l-.129-.02-.107-.058-41.335-22.912.474.083-271.172,34.79-.278.035-.24-.1L804.5,152.336l.272.073-274.05-33.756.566-.132L148.578,403.871l-.044.034-.064.01Z" transform="translate(0.177 -38.277)" fill="#414141"/><path d="M1.788,435.808l142.465-26.8-.1.041,378.45-279.987.214-.158.308.024,276.113,21.29.173.013.149.065,380.051,167.891-.466-.076L1451.879,298.2l.239-.017.189.1,41.743,22.929-.291-.083,183.253,13.356.124.009.1.05,70.28,34.731-.264-.055,309.27-7.755-309.239,8.364-.146,0-.12-.059-70.328-34.682.224.059-183.271-13.228-.163-.012-.129-.071-41.775-22.9.427.086-272.7,20.106-.251.018-.213-.094L798.75,151.206l.322.079L522.99,129.8l.521-.133L144.461,409.257l-.041.03-.058.011Z" transform="translate(0.19 -36.197)" fill="#414141"/><path d="M1.917,444.34,140.131,414.4l-.088.038,374.8-274.225.194-.142.281.009L793.443,149.1l.2.006.17.076,381.362,170.159-.412-.08,274.241-5.23.213,0,.169.091,42.18,22.917-.349-.083,183.355-.257h.147l.122.059,71.322,34.337-.238-.053,310.5,3.884-310.511-3.274h-.131l-.107-.052L1674.3,337.305l.271.058-183.352.385h-.2l-.154-.084-42.215-22.887.382.087L1174.8,320.286l-.224,0-.189-.085L793,150.077l.371.082-278.115-9.207.475-.133L140.342,414.643l-.038.028-.052.011Z" transform="translate(0.204 -34.118)" fill="#414141"/><path d="M2.047,453.386l133.962-33.078-.079.035L507.072,151.88l.177-.127.254,0,280.145-3.262.228,0,.191.086L1170.741,321l-.364-.081,275.753,9.456.188.006.147.08,42.621,22.9-.409-.08,183.453-13.869.174-.013.144.068,72.363,33.943-.211-.051,311.722,15.523-311.782-14.912-.117-.006-.1-.045-72.412-33.892.318.054-183.433,14-.228.017-.181-.1-42.655-22.875.335.086-275.766-9.263-.2-.007-.166-.074L787.253,149.459l.419.084-280.149,3.068.431-.13L136.223,420.543l-.034.024-.045.011Z" transform="translate(0.218 -32.552)" fill="#414141"/><path d="M2.176,463.849l129.711-36.217-.069.032L499.3,164.961l.159-.114.227-.013L781.852,149.3l.253-.014.213.1,383.988,174.694-.312-.079,277.263,24.141.161.014.129.068,43.059,22.893-.466-.073,183.552-27.48.2-.03.166.077,73.4,33.549-.184-.048,312.946,27.161-313.053-26.552-.1-.009-.084-.039-73.454-33.5.362.047-183.513,27.608-.256.039-.211-.111-43.091-22.863.288.082-277.3-23.948-.171-.015-.141-.065L781.5,150.26l.465.082L499.786,165.686l.386-.126L132.1,427.86l-.03.021-.038.011Z" transform="translate(0.232 -32.403)" fill="#414141"/><path d="M2.305,474.313l125.458-39.358-.059.028,363.832-256.94.142-.1.2-.02,284.178-27.815.276-.027.233.107,385.3,176.96-.261-.075L1440.38,365.9l.136.019.109.058,43.5,22.881-.523-.061L1667.255,347.7l.214-.048.191.085,74.447,33.155-.159-.043,314.173,38.8L1741.8,381.456l-.086-.01-.074-.033-74.494-33.1.406.037-183.6,41.22-.283.063-.24-.125-43.53-22.85.245.076L1161.315,328.1l-.142-.02-.121-.056-385.3-176.963.508.08L492.046,178.758l.344-.12L127.982,435.177l-.026.018-.033.011Z" transform="translate(0.245 -32.255)" fill="#414141"/><path d="M2.434,484.775l121.206-42.5-.049.025L483.769,191.124l.127-.089.175-.024,286.194-40.091.3-.042.252.118,386.616,179.226-.216-.069L1437.5,383.665l.111.021.091.048,43.939,22.868-.573-.048,183.752-54.7.231-.069.213.092,75.489,32.761-.134-.038,315.4,50.434L1740.427,385.2l-.071-.012-.064-.027-75.534-32.709.443.024-183.677,54.832-.306.091-.267-.139L1436.98,384.42l.2.069L1156.822,331.17l-.118-.022-.1-.047L770,151.859l.55.075L484.3,191.829l.3-.112L123.861,442.494l-.023.015-.027.01Z" transform="translate(0.259 -32.106)" fill="#414141"/><path d="M2.563,495.239,119.516,449.6l-.04.021L476,204.206l.111-.077.152-.028,288.211-52.366.317-.057.272.127L1153,333.3l-.174-.06,281.8,68.2.089.021.074.039,44.378,22.856-.62-.031L1662.393,356l.243-.09.235.1,76.531,32.366-.109-.033,316.627,62.071-316.863-61.475-.057-.011-.053-.022-76.575-32.314.476.009-183.756,68.443-.325.121-.3-.152-44.41-22.826.164.06-281.895-68-.092-.023-.082-.038-387.9-181.521.588.069L476.557,204.9l.263-.1L119.74,449.81l-.019.013-.022.009Z" transform="translate(0.273 -31.957)" fill="#414141"/><path d="M2.692,505.7l112.7-48.777-.031.017L468.229,217.288l.1-.066.13-.029,290.229-64.641.333-.074.291.137L1148.559,336.37l-.134-.05L1431.737,419.2l.069.02.057.03,44.816,22.844-.662-.015,183.95-81.93.251-.112.255.105,77.575,31.973-.085-.027,317.857,73.7-318.133-73.116-.044-.01-.042-.017-77.617-31.92.506-.006-183.842,82.055-.337.151-.327-.166-44.847-22.814.124.049-283.424-82.69-.07-.02-.064-.03-389.2-183.8.624.062L468.807,217.967l.227-.1L115.618,457.127l-.015.01-.018.007Z" transform="translate(0.286 -31.808)" fill="#414141"/><path d="M2.822,516.163l108.447-51.915-.023.013L460.459,230.37l.083-.056.11-.029L752.9,153.368l.347-.092.308.147,390.566,186.02-.094-.039L1428.85,436.97l.047.016.044.021,45.256,22.831-.7,0L1657.546,364.3l.256-.133.277.111,78.615,31.578-.062-.021,319.087,85.34-319.4-84.758-.032-.009-.03-.012-78.661-31.525.531-.022-183.92,95.666-.35.181-.352-.177-45.288-22.8.091.038L1143.35,340.378l-.05-.017-.047-.022L752.748,154.257l.655.055L461.053,231.035l.194-.085L111.494,464.444l-.011.007-.012.006Z" transform="translate(0.3 -31.66)" fill="#414141"/><path d="M2.951,526.627l104.194-55.055-.015.008L452.687,243.452l.072-.048.091-.027,294.265-89.191.361-.109.324.156,391.883,188.283-.061-.026,286.339,112.251.03.012.027.014,45.7,22.819-.738.022,184.149-109.156.26-.153.293.115,79.66,31.184-.04-.014,320.318,96.973-320.67-96.4-.021-.006-.02-.008-79.7-31.131.551-.038-184,109.277-.357.211-.38-.189-45.727-22.79.059.025L1138.863,343.446l-.03-.012-.03-.014L747,155.057l.685.046L453.3,244.1l.163-.074L107.372,471.76l-.008,0-.008,0Z" transform="translate(0.314 -31.511)" fill="#414141"/><path d="M3.08,537.089,60.415,503.7,89.082,487.01,103.4,478.65l13.656-8.89,109.236-71.119L444.915,256.534l.06-.039.074-.026L741.334,155l.371-.127.342.166,359.69,174.285,22.468,10.9,11.242,5.446,11.567,5.1,46.265,20.4,92.529,40.8,92.531,40.8c15.4,6.823,30.9,13.544,46.213,20.456l44.683,22.088-.766.04L1652.715,372.6l.259-.172.31.119,49.271,18.8,24.636,9.4,6.16,2.35c2.074.756,4.2,1.433,6.3,2.153l12.64,4.261,101.076,34.136,202.148,68.295L1853.1,444.021,1751.9,410.054l-12.646-4.253c-2.1-.719-4.23-1.4-6.305-2.149l-6.164-2.346-24.655-9.385-49.306-18.77.568-.052L1469.3,495.986l-.359.24-.407-.2-44.684-22.046c-15.326-6.9-30.833-13.612-46.241-20.428l-92.584-40.743-92.586-40.742-46.29-20.372-11.574-5.093-11.25-5.439-22.483-10.89-359.6-174.417.711.038L445.535,257.169l.134-.064L226.816,399.057l-109.5,70.912-13.689,8.865-14.346,8.336-28.734,16.64Z" transform="translate(0.328 -31.362)" fill="#414141"/><path d="M3.209,547.552,437.141,269.616l.049-.031.059-.023L735.554,155.822l.38-.145.355.173,730.462,357.225-.792.058L1650.306,376.75l.255-.189.328.122L2055.418,527.32,1650.431,377.29l.583-.067-184.169,136.5-.36.269-.433-.212L735.488,156.655l.734.029L437.77,270.236l.107-.053Z" transform="translate(0.342 -31.213)" fill="#414141"/><path d="M3.031,549.53,430.152,281.479l.047-.03.057-.021L732.117,166.774l.382-.145.354.176,703.229,349.274-.769.028,216.206-132.4.255-.155.3.109L2055.437,532.1l-403.82-147.824.55-.046L1436.132,516.764l-.367.226-.4-.2L732.046,167.6l.736.031L430.771,282.1l.1-.05Z" transform="translate(0.322 156.839)" fill="#414141"/><path d="M2.852,551.507,423.164,293.343l.045-.028.055-.02L728.68,177.726l.384-.145.353.179,676,341.324-.748,0L1652.735,390.67l.246-.127.272.1,402.2,146.23L1652.8,391.253l.516-.029L1405.425,519.8l-.372.194-.376-.19L728.6,178.554l.738.034L423.773,293.959l.1-.048Z" transform="translate(0.304 172.91)" fill="#414141"/><path d="M2.674,553.484l413.5-248.278.044-.026.05-.019L725.242,188.679l.386-.145.355.182,648.772,333.371-.726-.016,279.917-124.433.238-.105.248.089,401.042,144.026L1653.987,398.235l.486-.016L1374.722,522.835l-.372.166-.356-.183L725.161,189.5l.739.036L416.775,305.82l.094-.045Z" transform="translate(0.285 188.502)" fill="#414141"/><path d="M2.5,555.462,409.19,317.07l.042-.024.048-.018,312.527-117.4.388-.146.354.185L1344.1,525.091l-.711-.035,311.769-120.449.226-.088.232.082,399.879,141.821L1655.173,405.216l.459-.006L1344.024,525.864l-.371.145-.342-.178L721.719,200.451l.742.039L409.778,317.68l.089-.042Z" transform="translate(0.266 203.637)" fill="#414141"/><path d="M2.318,557.439,402.205,328.933l.039-.022.045-.017L718.371,210.585l.391-.147.353.189,594.332,317.466-.7-.049,343.616-116.467.216-.074.216.076L2055.512,551.2l-399.155-139,.433,0L1313.333,528.893l-.372.126-.328-.175L718.277,211.4l.743.042-316.24,118.1.084-.039Z" transform="translate(0.247 218.337)" fill="#414141"/><path d="M2.14,559.417,395.221,340.8l.037-.02.042-.016L714.935,221.539l.394-.147.353.192L1282.8,531.1l-.69-.063,375.459-112.484.208-.062.2.069,397.556,137.414L1657.544,419.178l.409.008L1282.646,531.919l-.37.112-.32-.175L714.836,222.347l.745.045L395.785,341.4l.078-.035Z" transform="translate(0.228 232.626)" fill="#414141"/><path d="M1.961,561.393,388.238,352.661l.034-.019.039-.014L711.5,232.492l.4-.147.352.2L1252.154,534.1l-.684-.075,407.3-108.5.2-.053.189.065,396.395,135.209L1658.729,426.159l.389.012L1251.968,534.944l-.374.1-.312-.174L711.394,233.294l.748.049L388.791,353.263l.072-.033Z" transform="translate(0.209 246.522)" fill="#414141"/><path d="M1.783,563.371,381.256,364.524l.032-.016.035-.013L708.066,243.446l.4-.148.35.2,512.7,293.607-.681-.087L1659.967,432.5l.192-.045.179.061,395.233,133L1659.913,433.141l.37.015L1221.293,537.968l-.375.09-.307-.176L707.954,244.241l.75.053L381.8,365.124l.065-.029Z" transform="translate(0.19 261.088)" fill="#414141"/><path d="M1.6,565.349,374.275,376.387l.028-.014.032-.012L704.632,254.4l.4-.149.35.206L1190.878,540.11l-.68-.1L1661.166,439.48l.181-.039.171.058,394.07,130.8L1661.1,440.122l.352.017L1190.623,540.991l-.379.081-.3-.178L704.511,255.188l.754.056L374.8,376.984l.059-.026Z" transform="translate(0.171 275.681)" fill="#414141"/><path d="M1.426,567.325,367.3,388.251l.025-.013.028-.011L701.2,265.353l.408-.15.349.211,458.29,277.7-.682-.109,502.8-96.549.175-.034.162.053,392.91,128.6L1662.284,447.1l.337.02-502.664,96.892-.382.073-.3-.182-458.2-277.772.757.061L367.809,388.844l.053-.022Z" transform="translate(0.152 290.006)" fill="#414141"/><path d="M1.248,569.3,360.316,400.114l.023-.01.024-.009,337.4-123.789.413-.152.348.218L1129.618,546.12l-.687-.119,534.624-92.565.168-.029.154.05,391.75,126.393L1663.468,454.084l.324.021-534.5,92.931-.389.068-.3-.188L697.628,277.079l.761.066L360.816,400.705l.046-.019Z" transform="translate(0.133 304.07)" fill="#414141"/><path d="M1.07,571.281l352.269-159.3.018-.009.02-.007,340.954-124.7.418-.153.348.225,403.9,261.8-.7-.132,566.447-88.581.161-.026.149.048,390.589,124.189L1664.653,461.065l.308.022-566.323,88.97-.4.063-.3-.193-403.76-261.9.766.072L353.825,412.565l.038-.016Z" transform="translate(0.114 317.884)" fill="#414141"/><path d="M.892,573.257,346.363,423.841l.014-.006.016-.006L690.9,298.214l.425-.155.346.233,376.707,253.844-.7-.144,598.266-84.6.154-.022.144.045L2055.664,589.4,1665.839,468.046l.295.023-598.147,85.01-.4.058-.3-.2L690.743,298.968l.771.078-344.68,125.38.029-.013Z" transform="translate(0.095 331.454)" fill="#414141"/><path d="M.713,575.235l338.367-139.4L687.467,309.168l.432-.157.344.242,349.521,245.892-.714-.158,630.082-80.614.147-.019.137.042,388.267,119.78-388.66-119.15.283.023L1037.338,556.1l-.415.053-.3-.211L687.3,309.912l.775.085L339.537,436.413Z" transform="translate(0.076 344.788)" fill="#414141"/><path d="M.535,577.213l169.4-66.2,84.7-33.1L297,461.379l21.187-8.262c7.076-2.735,14.07-5.578,21.3-8.112L684.033,320.122l.443-.16.343.253,322.336,237.94-.729-.172,661.9-76.629.144-.018.131.04L2055.7,598.952l-387.5-116.944.275.024-661.787,77.089-.429.05-.3-.221L683.858,320.855l.784.092L339.931,445.588c-7.234,2.529-14.231,5.368-21.312,8.1l-21.2,8.245-42.4,16.489L170.2,511.35Z" transform="translate(0.057 357.892)" fill="#414141"/><path d="M.356,579.19l169.686-62.537c56.58-20.821,113.069-41.765,169.775-62.417L680.6,331.077l.451-.164.34.265L976.552,561.167l-.746-.187,693.7-72.646.139-.015.127.039,385.948,115.37-386.33-114.739.264.024-693.6,73.13-.444.047-.3-.235L680.414,331.8l.791.1L340.249,454.823Z" transform="translate(0.038 370.775)" fill="#414141"/><path d="M.178,581.168,170.2,522.457,255.2,493.1l42.518-14.658,21.257-7.332,21.069-7.592L677.17,342.031l.463-.167.337.279L945.953,564.183l-.765-.207L1670.7,495.314l.134-.013.121.036L2055.74,608.5,1670.577,495.97l.253.023L945.417,565.162l-.463.045-.3-.251L676.97,342.737l.8.112-337.3,121.258-21.081,7.578L298.12,479l-42.552,14.612L170.438,522.8Z" transform="translate(0.019 383.442)" fill="#414141"/><path d="M0,583.145l170.39-54.71,85.193-27.354,42.607-13.659,10.654-3.412,2.663-.854,2.606-.937,5.212-1.873,20.848-7.492L673.74,352.985l.477-.171.332.3,240.793,214.1-.766-.221,757.31-64.7.128-.01.117.034L2055.759,613.28l-384-110.329.243.023L914.781,568.167l-.471.041-.3-.262L673.525,353.676l.808.124L340.582,473.445l-20.86,7.478-5.215,1.87-2.607.934-2.665.853-10.659,3.4-42.643,13.61L170.62,528.778Z" transform="translate(0 395.9)" fill="#414141"/><path d="M.049,591.091l165.55-53.62,82.773-26.808,41.4-13.389,10.351-3.345,2.586-.836,2.533-.915,5.067-1.829,20.266-7.318L654.827,365.947l.448-.162.333.267L781.676,466.846l63.035,50.4c10.581,8.353,20.838,16.905,31.185,25.4L906.9,568.157l-.719-.2,587.625-40.941,146.615-12.12,18.337-1.456c3.086-.2,6.058-.53,9.272-.593a45.844,45.844,0,0,1,4.564.827c1.48.313,2.94.657,4.4.993,11.67,2.763,23.212,5.757,34.754,8.745q34.611,9.009,69.057,18.317,68.911,18.569,137.629,37.5c45.807,12.618,91.654,25.176,137.313,38.057-45.714-12.785-91.609-25.251-137.471-37.774q-68.821-18.738-137.78-37.217-34.483-9.23-69.07-18.264c-11.543-2.98-23.089-5.966-34.739-8.714-2.893-.645-5.892-1.4-8.739-1.78-2.912.065-6.054.391-9.085.6l-18.333,1.469-146.6,12.224-587.586,41.3-.437.031-.285-.235-30.964-25.529c-10.334-8.5-20.579-17.059-31.146-25.421l-62.961-50.44L654.637,366.65l.78.1L330.978,483.615l-20.277,7.3-5.068,1.827-2.535.913-2.588.835-10.358,3.337-41.435,13.335-82.891,26.643Z" transform="translate(0.005 409.347)" fill="#414141"/><path d="M.1,599.035l160.709-52.526,80.352-26.262,40.184-13.12,10.049-3.276,2.509-.821,2.461-.892,4.921-1.785,19.684-7.145,314.945-114.3.42-.153.331.237,131.748,94.483,65.874,47.243c11.13,7.772,21.581,16,32.258,24.077L898.461,569.1l-.674-.187,590.675-31.933c49.024-3.962,98.073-8,147.154-11.748l18.418-1.349c3.072-.214,6.142-.421,9.255-.557a34.159,34.159,0,0,1,4.691.46c1.518.23,3.024.486,4.522.759,11.958,2.235,23.687,4.939,35.424,7.632,23.443,5.441,46.75,11.159,70.023,16.932q69.795,17.393,139.2,35.516l69.4,18.136,34.652,9.158c11.526,3.095,23.118,6.085,34.542,9.356-11.437-3.247-23.042-6.212-34.58-9.284l-34.69-9.087L1917,584.915q-69.535-17.877-139.337-35.232c-23.281-5.757-46.592-11.458-70.03-16.879-11.729-2.681-23.471-5.378-35.373-7.593-1.49-.272-2.984-.525-4.483-.748a33.132,33.132,0,0,0-4.458-.444c-3.046.136-6.118.345-9.188.56l-18.405,1.362c-49.074,3.784-98.089,7.854-147.149,11.854l-590.66,32.283-.4.021-.273-.207-31.873-24.32c-10.663-8.082-21.1-16.315-32.215-24.1l-65.8-47.284-131.6-94.57.751.085L321.374,493.787l-19.694,7.13-4.924,1.783-2.461.891-2.513.82-10.055,3.268L241.5,520.739l-80.469,26.1Z" transform="translate(0.01 422.489)" fill="#414141"/><path d="M.147,606.978l155.868-51.432,77.931-25.716,38.97-12.85,9.746-3.208q2.452-.778,4.823-1.675l4.777-1.743,19.1-6.969L617,391.873l.391-.143.326.21,137.422,88.115,68.712,44.059c11.68,7.174,22.3,15.133,33.325,22.791l32.845,23.144-.628-.17,593.712-22.923c49.212-3.87,98.468-7.828,147.762-11.366,6.164-.439,12.329-.865,18.5-1.244q4.626-.306,9.288-.492a64.136,64.136,0,0,1,9.321.765c12.185,1.728,24.1,4.133,36.02,6.525,23.8,4.866,47.41,10.145,70.979,15.509,47.117,10.783,94,22.042,140.817,33.453q35.1,8.568,70.127,17.3l34.992,8.785,17.468,4.451c5.8,1.523,11.67,2.935,17.361,4.636-5.7-1.69-11.576-3.086-17.38-4.6l-17.485-4.413-35.03-8.713q-35.058-8.658-70.2-17.15-70.28-16.978-140.937-33.168c-23.574-5.346-47.192-10.606-70.978-15.452-11.9-2.381-23.828-4.776-35.939-6.484a63.138,63.138,0,0,0-9.1-.747q-4.61.19-9.238.5-9.247.575-18.49,1.256c-49.29,3.574-98.493,7.566-147.763,11.474L889.482,571.032l-.367.014-.261-.184-32.8-23.156c-11.01-7.663-21.608-15.624-33.28-22.806l-68.638-44.1-137.276-88.2.717.067-305.813,111.3-19.113,6.956-4.779,1.739q-2.375.891-4.827,1.671l-9.751,3.2-39.018,12.786-78.046,25.556Z" transform="translate(0.016 435.337)" fill="#414141"/><path d="M.2,614.923l151.024-50.34,75.51-25.168c25.125-8.452,50.543-16.493,75.025-25.851l296.33-108.728.364-.134.321.183,143.078,81.694,71.54,40.847,8.943,5.107c.738.431,1.506.838,2.22,1.289l2.111,1.376,4.225,2.753,16.9,11.015L881.577,571l-.58-.153L1478.2,556.925l-.048,0c49.423-3.827,98.843-7.652,148.345-10.987,6.19-.4,12.379-.813,18.583-1.141,3.094-.192,6.209-.306,9.321-.434a79.774,79.774,0,0,1,9.37.5c12.341,1.3,24.432,3.384,36.5,5.484,24.113,4.291,48.011,9.116,71.857,14.056,47.667,9.942,95.057,20.512,142.348,31.288q35.465,8.1,70.825,16.405l35.326,8.387,17.624,4.271,8.791,2.178c2.906.764,5.894,1.418,8.693,2.345-2.8-.922-5.792-1.571-8.7-2.326l-8.8-2.16-17.643-4.233-35.362-8.312q-35.392-8.238-70.891-16.255c-47.33-10.683-94.774-21.129-142.455-31-23.847-4.92-47.748-9.728-71.842-14-12.053-2.089-24.149-4.164-36.408-5.444a78.7,78.7,0,0,0-9.2-.483c-3.093.13-6.185.245-9.281.439-6.192.333-12.377.75-18.565,1.153-49.476,3.371-98.9,7.232-148.307,11.1h-.046L881.05,571.986l-.336.007-.245-.159L846.73,549.793l-16.871-11.02-4.218-2.756-2.108-1.377c-.714-.452-1.48-.859-2.218-1.291l-8.933-5.111-71.466-40.89L597.981,405.565l.683.049-296.5,108.518-18.532,6.782c-3.106,1.1-6.132,2.324-9.309,3.33l-9.449,3.132-37.809,12.511L151.438,564.9Z" transform="translate(0.021 447.904)" fill="#414141"/><path d="M.246,622.868l146.179-49.246L219.515,549c24.323-8.265,48.909-16.156,72.633-25.258L579.17,417.8l.338-.123.31.157,233.95,118.333.026.013.026.015,59.314,35.752-.535-.137,600.1-4.889-.058,0c49.672-3.739,99.349-7.452,149.115-10.588,6.225-.368,12.448-.746,18.685-1.047,3.111-.18,6.24-.266,9.364-.393,3.156-.1,6.3.058,9.419.265,12.47.922,24.731,2.687,36.952,4.5,24.423,3.722,48.628,8.088,72.769,12.6,48.258,9.085,96.2,18.951,144.033,29.072q35.869,7.607,71.616,15.484l35.705,7.971,17.808,4.085,8.877,2.095,4.422,1.083a40.546,40.546,0,0,1,4.328,1.227,40.506,40.506,0,0,0-4.332-1.218l-4.428-1.071-8.887-2.077-17.823-4.046-35.736-7.9q-35.779-7.8-71.68-15.331c-47.863-10.028-95.865-19.758-144.128-28.784-24.139-4.491-48.341-8.836-72.743-12.536-12.206-1.805-24.465-3.559-36.849-4.464-3.1-.2-6.2-.358-9.283-.255-3.113.129-6.223.217-9.333.4-6.225.306-12.445.688-18.664,1.062-49.743,3.172-99.415,6.922-149.076,10.695l-.029,0h-.031l-600.094,5.189-.3,0-.232-.14-59.261-35.794.05.029L579.1,418.533l.647.032L292.551,524.3l-17.949,6.61c-5.937,2.268-12.064,4.27-18.163,6.311l-36.6,12.235-73.2,24.469Z" transform="translate(0.026 460.2)" fill="#414141"/><path d="M.295,630.813,141.631,582.66,212.3,558.583c23.52-8.073,47.277-15.817,70.24-24.664L560.255,430.761l.312-.116.3.134L803.278,538.7l.033.015.033.019,61.346,34.16-.487-.121,602.991,4.14-.067,0c49.946-3.643,99.894-7.239,149.941-10.171,6.259-.349,12.518-.688,18.788-.969,3.13-.159,6.276-.237,9.412-.359,3.156-.108,6.317-.024,9.458.112,12.57.62,24.98,2.072,37.342,3.617,24.713,3.173,49.214,7.07,73.64,11.142,48.838,8.215,97.346,17.341,145.723,26.777q36.276,7.1,72.422,14.513,18.07,3.713,36.1,7.535l18,3.885,8.969,2.009,4.467,1.046a33.594,33.594,0,0,1,4.346,1.221,33.647,33.647,0,0,0-4.354-1.212l-4.47-1.036-8.976-1.988-18.013-3.848q-18.036-3.792-36.129-7.457-36.171-7.347-72.478-14.357c-48.409-9.344-96.967-18.326-145.8-26.489-24.425-4.053-48.92-7.931-73.606-11.08-12.346-1.535-24.747-2.974-37.234-3.58-6.237-.358-12.475.007-18.743.261-6.259.286-12.513.63-18.769.982-50.022,2.967-99.968,6.6-149.9,10.28l-.036,0h-.033l-603-3.856h-.276l-.214-.12-61.3-34.206.065.032L560.214,431.5l.611.018L282.94,534.477l-17.367,6.435c-5.745,2.205-11.667,4.166-17.568,6.156l-35.388,11.963-70.775,23.927Z" transform="translate(0.031 472.235)" fill="#414141"/><path d="M.344,638.756,136.834,591.7l68.242-23.529c22.72-7.883,45.647-15.479,67.848-24.071L541.338,443.726l.288-.108.285.112,250.875,97.507.041.015.039.02,63.38,32.571-.444-.107L1461.693,586.9l-.081,0c50.236-3.539,100.476-7.012,150.82-9.739q9.441-.5,18.9-.9c6.3-.217,12.628-.553,18.963-.321,12.65.385,25.191,1.546,37.684,2.834,24.977,2.651,49.758,6.078,74.465,9.709,49.4,7.331,98.474,15.692,147.4,24.409q36.693,6.564,73.246,13.493,18.273,3.471,36.5,7.07l18.193,3.674,9.064,1.914,4.511,1.007,2.24.536a9.834,9.834,0,0,1,2.13.677,9.879,9.879,0,0,0-2.132-.673l-2.244-.531-4.515-1-9.072-1.9-18.208-3.633q-18.232-3.571-36.526-6.992-36.578-6.859-73.3-13.334c-48.959-8.627-98.075-16.834-147.469-24.12-24.706-3.612-49.48-7.018-74.428-9.646-12.472-1.279-25-2.427-37.578-2.8-6.285-.227-12.565.112-18.869.336q-9.44.406-18.875.912c-50.318,2.764-100.558,6.274-150.774,9.849l-.041,0h-.039l-605.9-12.9-.245-.006-.2-.1-63.331-32.618.079.036L541.33,444.466l.573,0L273.328,544.65c-22.207,8.59-45.185,16.114-67.935,23.955l-68.35,23.384Z" transform="translate(0.037 484.021)" fill="#414141"/><path d="M.393,646.7l131.643-45.963,65.821-22.981c21.914-7.7,44.016-15.134,65.454-23.477l259.112-97.59.263-.1.273.091,259.335,87.093.048.017.046.021L847.8,574.794l-.4-.094,608.785,22.2h-.091c50.539-3.426,101.094-6.763,151.75-9.3,6.333-.318,12.671-.579,19.01-.84,6.338-.194,12.694-.505,19.064-.37,12.723.21,25.379,1.1,37.99,2.157,25.217,2.162,50.27,5.121,75.248,8.312,49.949,6.441,99.581,14.007,149.064,21.978q37.108,6,74.076,12.421,18.482,3.215,36.911,6.576,9.209,1.687,18.394,3.447l9.162,1.813,4.557.966,2.264.519a8.525,8.525,0,0,1,2.132.685,8.6,8.6,0,0,0-2.136-.68l-2.266-.515-4.559-.954-9.168-1.795q-9.191-1.749-18.411-3.407-18.439-3.334-36.935-6.5-36.987-6.349-74.124-12.258c-49.51-7.88-99.183-15.282-149.12-21.69-24.971-3.17-50.016-6.109-75.2-8.25-12.594-1.043-25.233-1.923-37.9-2.123-6.328-.129-12.651.186-18.99.384-6.331.266-12.663.53-18.992.853-50.627,2.569-101.178,5.944-151.7,9.407l-.048,0h-.044L847.323,575.8l-.218-.008-.182-.085-65.367-31.029.1.038-259.2-87.286.535-.008-259.272,97.4c-21.447,8.334-43.6,15.7-65.547,23.357L132.24,601.02Z" transform="translate(0.042 496.531)" fill="#414141"/><path d="M.442,654.644l126.8-44.867,63.4-22.434c21.108-7.511,42.392-14.783,63.062-22.884l249.812-94.806.242-.094.256.073,267.8,76.681.058.015.053.024,67.445,29.391-.354-.081,611.68,31.226h-.1q38.148-2.514,76.322-4.773c25.453-1.495,50.914-2.928,76.408-4.07,6.371-.3,12.752-.535,19.13-.781,6.379-.187,12.767-.47,19.171-.407,12.8.077,25.556.738,38.275,1.574,25.441,1.714,50.749,4.214,75.991,6.966,50.475,5.559,100.66,12.3,150.7,19.495q37.523,5.422,74.91,11.294,18.691,2.947,37.327,6.053,9.318,1.564,18.6,3.206,4.639.829,9.265,1.7l4.607.918,2.285.5,1.125.282c.345.117.8.173,1.01.408-.206-.234-.666-.291-1.01-.406l-1.129-.281-2.286-.5-4.611-.907q-4.621-.875-9.271-1.686-9.286-1.635-18.615-3.166-18.645-3.082-37.349-5.97-37.4-5.808-74.957-11.132c-50.061-7.1-100.284-13.672-150.742-19.2-25.231-2.733-50.533-5.212-75.945-6.9-12.7-.826-25.444-1.474-38.189-1.542-6.371-.058-12.737.229-19.114.42-6.371.25-12.745.489-19.113.794-25.48,1.161-50.934,2.613-76.38,4.127s-50.88,3.135-76.3,4.83l-.053,0-.051,0-611.7-30.989-.19-.011-.163-.071-67.4-29.442.11.039L503.563,470.393l.5-.02L254.094,565c-20.694,8.068-42.021,15.285-63.16,22.754l-63.5,22.3Z" transform="translate(0.047 510.546)" fill="#414141"/><path d="M.491,662.589l121.944-43.772,60.972-21.885c20.3-7.326,40.765-14.434,60.67-22.287L484.59,482.617l.22-.084.238.058L761.31,548.857l.064.017.06.024,69.481,27.8-.31-.07,614.578,40.257h-.115q38.406-2.42,76.838-4.557c25.624-1.422,51.26-2.755,76.923-3.827,12.837-.488,25.656-1.078,38.542-1.16,12.872-.022,25.724.44,38.548,1.077,25.65,1.31,51.2,3.362,76.7,5.682,50.98,4.683,101.711,10.585,152.307,16.967q37.938,4.815,75.747,10.114,18.9,2.664,37.749,5.5,9.421,1.431,18.813,2.948c3.13.513,6.254,1.034,9.368,1.588,1.559.279,3.114.563,4.659.87.772.153,1.544.311,2.309.483.383.087.762.177,1.137.278.345.117.818.172,1,.419-.187-.245-.66-.3-1-.416-.375-.1-.756-.188-1.139-.274-.765-.172-1.539-.329-2.312-.479-1.545-.3-3.1-.584-4.661-.858q-4.673-.82-9.375-1.567-9.392-1.512-18.825-2.909-18.853-2.815-37.772-5.415-37.822-5.233-75.784-9.948c-50.611-6.292-101.375-12.013-152.336-16.677-25.484-2.3-51.028-4.333-76.652-5.62-12.807-.628-25.644-1.078-38.475-1.046-12.821.09-25.663.692-38.484,1.187-25.648,1.09-51.278,2.441-76.894,3.884s-51.224,2.982-76.816,4.614l-.057,0-.057,0L830.461,577.709l-.166-.011-.144-.059-69.439-27.854.125.04L484.678,483.351l.458-.027L244.474,575.171c-19.94,7.809-40.437,14.874-60.771,22.156l-61.072,21.753Z" transform="translate(0.052 524.398)" fill="#414141"/><path d="M.541,670.534l117.093-42.676,58.546-21.336c19.494-7.14,39.134-14.089,58.28-21.689l231.212-89.252.2-.077.221.044L750.816,551.4l.074.014.067.025,71.513,26.211-.268-.057,617.472,49.285h-.12c51.567-3.046,103.161-5.868,154.836-7.916,12.924-.458,25.835-.994,38.795-1.134,12.953-.1,25.9.193,38.823.655,25.851.944,51.636,2.569,77.372,4.466,51.468,3.828,102.733,8.865,153.874,14.409q38.35,4.185,76.582,8.88,19.108,2.363,38.172,4.912,9.529,1.286,19.029,2.672c3.165.468,6.326.948,9.474,1.463,1.576.259,3.148.523,4.71.814.784.145,1.563.3,2.335.463.386.084.772.172,1.151.272.341.116.834.17.995.428-.163-.259-.655-.31-1-.426-.379-.1-.764-.186-1.149-.269-.774-.165-1.554-.314-2.336-.458-1.565-.286-3.139-.548-4.715-.8-3.15-.509-6.313-.982-9.48-1.442q-9.5-1.381-19.039-2.631-19.065-2.53-38.192-4.827-38.239-4.632-76.613-8.713c-51.154-5.454-102.445-10.3-153.894-14.119-51.42-3.637-103.186-6.835-154.838-3.868-51.648,2.085-103.238,4.947-154.788,8.03l-.062,0-.062,0L822.029,578.661l-.141-.011-.127-.046-71.473-26.265.139.039L465.792,496.31l.422-.036-231.37,89.067c-19.177,7.556-38.849,14.465-58.376,21.561l-58.644,21.211Z" transform="translate(0.058 538.088)" fill="#414141"/><path d="M.59,678.478,112.83,636.9l56.119-20.788c18.688-6.954,37.5-13.743,55.889-21.089l221.914-86.477.184-.071.206.032,293.184,45.441.079.012.074.025,73.547,24.623-.225-.047,620.37,58.315-.132,0c51.945-2.9,103.92-5.521,155.962-7.442,52.057-2.592,104.287-.409,156.185,2.512,51.94,2.994,103.727,7.152,155.4,11.831q38.751,3.536,77.4,7.593,19.319,2.047,38.6,4.291,9.634,1.135,19.242,2.38c3.2.42,6.4.854,9.586,1.327,1.59.237,3.182.483,4.763.754.791.136,1.578.279,2.361.44.389.081.778.165,1.161.265.345.116.849.166.993.438-.146-.272-.65-.32-.993-.435-.383-.1-.774-.181-1.163-.262-.782-.159-1.571-.3-2.363-.434-1.583-.268-3.175-.51-4.766-.745q-4.787-.7-9.589-1.306-9.608-1.239-19.253-2.337-19.278-2.224-38.615-4.2-38.657-4-77.43-7.423c-51.686-4.589-103.491-8.553-155.411-11.542-51.9-2.883-104.047-5.024-156.058-2.394-52.017,1.961-103.987,4.622-155.916,7.559l-.067,0-.065-.006L813.6,579.614l-.118-.011-.106-.037-73.51-24.677.154.038L446.9,509.267l.388-.042L225.214,595.513c-18.419,7.3-37.265,14.054-55.985,20.965l-56.212,20.666Z" transform="translate(0.063 551.618)" fill="#414141"/><path d="M.639,686.422l107.385-40.478,53.693-20.24c17.882-6.765,35.871-13.4,53.5-20.487l212.621-83.7.166-.065.189.022L729.838,556.5l.084.011.082.024,75.579,23.032-.185-.038,623.27,67.346-.142,0c52.341-2.732,104.713-5.155,157.138-6.96,13.111-.408,26.211-.866,39.339-1.09,13.129-.2,26.255-.175,39.379-.012,26.245.33,52.469,1.172,78.666,2.262,52.4,2.192,104.687,5.457,156.889,9.248q39.149,2.867,78.215,6.255,19.528,1.714,39.019,3.635c6.493.651,12.983,1.326,19.46,2.065,3.235.37,6.469.756,9.693,1.182,1.611.215,3.222.438,4.822.691.8.126,1.6.262,2.388.415.393.077.789.159,1.174.257.2.045.382.1.569.162.16.07.416.127.417.285,0-.158-.257-.215-.417-.284-.189-.061-.375-.116-.569-.161-.386-.1-.781-.178-1.177-.255q-1.187-.226-2.39-.408c-1.6-.25-3.21-.471-4.822-.68-3.225-.421-6.46-.8-9.7-1.162-6.479-.724-12.97-1.384-19.467-2.021q-19.49-1.9-39.032-3.547-39.072-3.331-78.234-6.083Q1821.57,645.114,1743,641.7c-52.372-2.128-104.89-3.38-157.282-1.039-52.406,1.843-104.771,4.306-157.093,7.077l-.072,0-.072-.007L805.169,580.568l-.1-.012-.087-.026-75.546-23.089.166.035L428.012,522.222l.353-.045L215.579,605.686c-17.657,7.052-35.677,13.644-53.59,20.371l-53.784,20.122Z" transform="translate(0.068 564.995)" fill="#414141"/><path d="M.688,694.368l102.529-39.379,51.263-19.69c17.078-6.579,34.238-13.048,51.108-19.887l203.328-80.933.151-.06.173.014,310.109,24.614.093.006.086.025,77.613,21.441-.146-.027,626.167,76.375-.151-.006q79.133-3.813,158.363-6.469c13.208-.4,26.409-.822,39.63-1.079s26.446-.311,39.668-.276c26.443.077,52.878.566,79.3,1.274,52.841,1.423,105.622,3.791,158.337,6.671q39.534,2.183,79.006,4.868,19.732,1.363,39.434,2.941c6.563.537,13.124,1.1,19.672,1.731,3.274.318,6.546.65,9.805,1.026,1.63.191,3.26.39,4.879.622q1.212.172,2.416.385c.4.075.8.153,1.187.249a5.8,5.8,0,0,1,.573.164c.163.068.42.132.406.293.012-.161-.245-.224-.406-.292a5.932,5.932,0,0,0-.573-.162c-.391-.1-.789-.173-1.19-.246q-1.2-.214-2.416-.38c-1.62-.23-3.251-.426-4.879-.611-3.263-.37-6.534-.695-9.811-1-6.55-.614-13.111-1.165-19.678-1.688q-19.7-1.562-39.443-2.854-39.476-2.632-79.023-4.692-79.076-4.175-158.332-6.387c-26.412-.687-52.839-1.155-79.268-1.213-13.214-.025-26.429.054-39.635.308s-26.412.7-39.613,1.108q-79.212,2.6-158.32,6.587l-.077,0-.074-.009L796.74,581.522l-.075-.01-.072-.02-77.58-21.5.177.032-310.07-24.849.323-.046-203.5,80.73c-16.9,6.8-34.092,13.235-51.2,19.776l-51.352,19.579Z" transform="translate(0.073 578.222)" fill="#414141"/><path d="M.737,702.311l97.668-38.278,48.836-19.14c16.268-6.391,32.6-12.7,48.714-19.287L390,547.444l.137-.055.156.006,318.573,14.2.1,0,.091.024L788.7,581.476l-.108-.021,629.065,85.4-.158-.006q79.777-3.5,159.631-5.975c53.231-1.862,106.567-1.919,159.837-1.216,53.279.688,106.534,2.164,159.746,4.111q39.907,1.48,79.775,3.432,19.932,1,39.837,2.215c6.636.416,13.266.86,19.887,1.376,3.309.259,6.618.534,9.916.858,1.647.164,3.3.337,4.934.544.818.106,1.636.22,2.446.355.4.071.808.145,1.2.238a5.292,5.292,0,0,1,.578.164c.165.069.422.139.395.3.027-.164-.231-.234-.395-.3a5.612,5.612,0,0,0-.58-.163c-.394-.093-.8-.165-1.2-.235-.808-.134-1.626-.245-2.444-.35-1.64-.2-3.289-.374-4.936-.534-3.3-.317-6.608-.584-9.919-.835-6.622-.5-13.254-.929-19.888-1.332q-19.909-1.2-39.846-2.126-39.868-1.9-79.786-3.255-79.821-2.77-159.734-3.828c-53.269-.661-106.561-.565-159.775,1.338q-79.839,2.47-159.6,6.095l-.08,0-.081-.011L788.31,582.475l-.057-.008-.053-.013-79.614-19.912.187.026-318.55-14.441.293-.048L196.3,626.033c-16.141,6.55-32.5,12.826-48.8,19.18l-48.92,19.033Z" transform="translate(0.078 591.299)" fill="#414141"/><path d="M.786,710.257l92.806-37.178L140,654.491c15.462-6.2,30.967-12.353,46.323-18.687l184.756-75.4.124-.05h.144l327.035,3.79h.1l.1.02,81.679,18.263-.069-.014,631.963,94.436-.166-.008q80.449-3.151,160.949-5.478c53.664-1.692,107.4-2.266,161.105-2.255q80.574-.016,161.121,1.579,40.27.765,80.521,1.953,20.121.621,40.232,1.449c6.7.291,13.4.607,20.091,1,3.343.2,6.689.413,10.025.679,1.664.135,3.332.281,4.991.463.829.095,1.657.193,2.477.319.408.067.817.136,1.215.228a5.276,5.276,0,0,1,.585.164c.165.066.422.146.381.311.041-.165-.216-.243-.381-.311a5.616,5.616,0,0,0-.587-.161c-.4-.09-.806-.159-1.216-.224-.819-.125-1.649-.222-2.476-.313-1.659-.179-3.325-.322-4.992-.452-3.337-.26-6.682-.466-10.029-.657-6.691-.376-13.392-.677-20.094-.954q-20.1-.818-40.231-1.36-40.252-1.142-80.523-1.775-80.54-1.34-161.109-1.3c-53.705.03-107.408.644-161.059,2.377q-80.494,2.363-160.924,5.6l-.084,0-.084-.013L779.878,583.429l-.036-.006-.034-.007-81.652-18.324.2.021-327.03-4.035.266-.048L186.652,636.212c-15.383,6.3-30.918,12.413-46.406,18.585L93.758,673.283Z" transform="translate(0.084 604.232)" fill="#414141"/><path d="M.835,719.241l87.942-36.073c29.3-12.046,58.667-24,87.9-36.122l175.477-72.63.112-.046.129,0,335.5-6.624.1,0,.1.02,44.411,8.844,22.2,4.422,11.1,2.212,5.55,1.1c1.865.333,3.747.618,5.617.928l89.966,14.618,179.921,29.265,359.771,58.737-.177-.011L1568.792,683q40.577-1.3,81.185-2.044,40.6-.786,81.218-1.266,81.226-1.006,162.466-.917,40.615.039,81.233.433c13.536.151,27.075.343,40.608.651,6.764.155,13.531.338,20.29.6,3.38.132,6.759.281,10.131.485,1.686.1,3.371.219,5.05.375.837.081,1.674.164,2.507.282.413.058.827.126,1.231.212a5.02,5.02,0,0,1,.59.162c.165.066.422.154.367.32.055-.166-.2-.253-.369-.319a5.249,5.249,0,0,0-.592-.161c-.4-.085-.816-.152-1.228-.21-.833-.116-1.671-.2-2.51-.276-1.679-.151-3.362-.263-5.05-.363-3.373-.2-6.751-.338-10.13-.463-6.761-.244-13.526-.414-20.29-.554-13.534-.278-27.07-.44-40.607-.561q-40.613-.35-81.231-.254-81.228.11-162.447,1.2-40.607.527-81.207,1.329t-81.17,2.105l-162.305,5-.091,0-.084-.013-359.881-58.468L866.569,600.952l-89.947-14.686c-1.872-.312-3.754-.6-5.617-.932l-5.552-1.11L754.35,582l-22.208-4.443-44.415-8.881.2.019-335.509,6.37.24-.049L177,647.432c-29.287,12.057-58.714,23.946-88.064,35.93Z" transform="translate(0.089 730.102)" fill="#414141"/><path d="M.884,728.822l332.349-139.8.1-.043.117-.006,343.963-17.037.106,0,.1.018,361.8,63.665,361.713,63.914-.182-.013q163.725-4.651,327.487-8.567,81.885-1.941,163.788-3.37,40.953-.692,81.913-1.122c13.654-.123,27.309-.209,40.967-.185,6.826.015,13.654.056,20.481.177,3.413.062,6.825.142,10.232.279,1.705.071,3.409.153,5.105.279.849.064,1.7.138,2.539.242.418.053.837.112,1.246.2a4.868,4.868,0,0,1,.6.158c.172.066.407.171.352.332.055-.161-.18-.264-.353-.331a4.915,4.915,0,0,0-.6-.157c-.408-.086-.829-.143-1.249-.2-.841-.1-1.69-.173-2.538-.236-1.7-.121-3.4-.2-5.105-.266-3.409-.13-6.82-.2-10.232-.257-6.826-.106-13.653-.132-20.481-.132-13.652.006-27.307.122-40.959.275q-40.956.47-81.9,1.3-81.9,1.575-163.769,3.651-163.759,3.988-327.468,8.816l-.091,0-.091-.015-361.809-63.639L677.3,572.865l.211.012L333.519,589.655l.216-.048Z" transform="translate(0.094 730.882)" fill="#414141"/><path d="M.884,732.752,335.516,600.694l.1-.037.11-.006,343.321-16.1.1,0,.1.015,361.67,60.122L1402.5,705.058l-.172-.012q163.4-4.393,326.834-8.086,81.716-1.833,163.455-3.174,40.87-.651,81.746-1.056c13.627-.114,27.254-.195,40.88-.171,6.812.015,13.627.055,20.439.169,3.405.059,6.809.135,10.211.265,1.7.066,3.4.145,5.1.262.848.061,1.7.13,2.536.228.418.05.837.105,1.249.186a4.692,4.692,0,0,1,.6.148c.175.063.422.154.374.318.047-.164-.2-.255-.374-.317a4.735,4.735,0,0,0-.6-.147c-.41-.079-.829-.134-1.25-.183-.839-.1-1.685-.164-2.532-.222-1.7-.115-3.4-.189-5.1-.251-3.4-.121-6.809-.19-10.213-.242-6.812-.1-13.625-.121-20.437-.121q-20.44.009-40.879.26-40.869.445-81.734,1.236-81.732,1.493-163.44,3.455-163.425,3.772-326.814,8.336l-.086,0-.087-.014-361.679-60.1L678.931,585.486l.2.012L335.787,601.335l.206-.044Z" transform="translate(0.094 733.232)" fill="#414141"/><path d="M.884,736.682,337.8,612.37l.093-.033.1,0L680.67,597.174l.094,0,.094.015L1042.4,653.76l361.461,56.829-.163-.011q163.076-4.13,326.18-7.6,81.555-1.726,163.125-2.98,40.786-.608,81.578-.987c13.6-.106,27.2-.18,40.8-.155,6.8.013,13.6.051,20.4.158,3.4.056,6.8.128,10.192.25,1.7.062,3.395.136,5.088.247.846.057,1.689.121,2.532.214.418.046.837.1,1.249.174a5.093,5.093,0,0,1,.607.138c.172.06.434.139.395.3.038-.164-.223-.242-.4-.3a5.474,5.474,0,0,0-.606-.139c-.412-.074-.83-.124-1.25-.17-.841-.09-1.687-.153-2.532-.208-1.691-.108-3.392-.177-5.086-.236-3.4-.115-6.8-.179-10.192-.228-6.8-.091-13.6-.113-20.4-.113-13.6.006-27.194.112-40.79.248q-40.79.42-81.572,1.167-81.562,1.411-163.109,3.261-163.1,3.552-326.159,7.853l-.082,0-.081-.013-361.551-56.55-361.47-56.8.189.011-342.7,14.9.2-.038Z" transform="translate(0.094 735.582)" fill="#414141"/><path d="M.884,740.613l339.2-116.565.086-.031.1,0L682.3,609.794l.089,0,.088.013,361.414,53.033,361.338,53.287-.152-.01q162.748-3.87,325.525-7.122,81.386-1.616,162.794-2.785,40.7-.568,81.412-.918,20.355-.148,40.71-.143c6.784.013,13.571.05,20.354.151,3.393.053,6.784.12,10.173.235,1.695.058,3.388.127,5.078.231.846.052,1.689.113,2.529.2.42.043.839.091,1.253.161a5.977,5.977,0,0,1,.607.128c.175.056.446.123.417.288.029-.165-.244-.231-.418-.286a5.317,5.317,0,0,0-.607-.127c-.414-.069-.832-.117-1.252-.16-.839-.083-1.683-.142-2.529-.193-1.689-.1-3.382-.165-5.076-.22-3.391-.107-6.783-.167-10.173-.211-6.785-.086-13.57-.107-20.354-.107q-20.357.011-40.707.235-40.705.4-81.4,1.1-81.4,1.327-162.78,3.065-162.766,3.334-325.505,7.372h-.079l-.076-.011-361.419-53.009L682.2,610.727l.177.009L340.321,624.695l.185-.033Z" transform="translate(0.094 737.932)" fill="#414141"/><path d="M.884,744.542,342.363,635.725l.082-.027.091,0,341.39-13.28.084,0,.082.012,361.284,49.488,361.212,49.742-.142-.008q162.426-3.607,324.873-6.638,81.225-1.509,162.464-2.589,40.617-.528,81.243-.852,20.313-.137,40.626-.131c6.771.014,13.544.047,20.315.144,3.382.049,6.767.113,10.152.22,1.69.053,3.38.119,5.069.216.843.048,1.685.106,2.527.185.417.04.836.087,1.249.15.206.033.412.068.609.12.175.052.458.107.439.272.017-.165-.262-.218-.439-.271-.2-.051-.4-.085-.611-.117-.414-.063-.832-.108-1.252-.148-.837-.077-1.681-.132-2.525-.179-1.687-.093-3.378-.154-5.069-.205-3.381-.1-6.767-.154-10.151-.2-6.769-.079-13.541-.1-20.313-.1q-20.312.01-40.623.222-40.621.374-81.237,1.033-81.23,1.244-162.451,2.87-162.441,3.117-324.856,6.89h-.07l-.072-.009-361.292-49.465L683.833,623.348l.166.008-341.41,13.02.173-.031Z" transform="translate(0.094 740.283)" fill="#414141"/><path d="M.884,748.473,344.643,647.4l.079-.022.084,0,340.747-12.341.077,0,.077.01,361.155,45.944,361.088,46.2-.132-.007q162.1-3.347,324.218-6.158,81.06-1.4,162.135-2.394,40.539-.488,81.08-.783,20.269-.126,40.542-.119c6.755.014,13.512.046,20.271.135,3.378.045,6.754.1,10.131.2,1.688.051,3.374.111,5.058.2.841.045,1.684.1,2.524.172.418.036.835.079,1.249.138.209.03.415.063.614.11.177.05.461.09.458.254,0-.163-.285-.2-.458-.253-.2-.047-.405-.079-.614-.108-.415-.058-.832-.1-1.25-.135-.839-.073-1.681-.124-2.522-.167-1.684-.085-3.374-.142-5.062-.189-3.374-.093-6.752-.144-10.13-.183-6.757-.074-13.514-.09-20.271-.089q-20.271.011-40.538.209-40.539.351-81.072.964-81.065,1.164-162.121,2.676-162.113,2.9-324.2,6.408h-.069l-.065-.008-361.16-45.921-361.1-46.177.154.007L344.856,648.057l.161-.027Z" transform="translate(0.094 742.633)" fill="#414141"/><path d="M.884,752.4,346.927,659.08l.072-.02.079,0,340.1-11.4.072,0,.07.008,361.025,42.4,360.965,42.658-.124-.006q161.775-3.086,323.568-5.675,80.9-1.292,161.8-2.2,40.451-.445,80.91-.716,20.227-.112,40.458-.1c6.743.013,13.487.043,20.229.127,3.37.042,6.743.1,10.11.189,1.686.047,3.371.1,5.052.186.841.042,1.681.089,2.516.158.419.033.839.074,1.254.127.205.027.413.057.616.1.175.049.467.077.477.238-.012-.161-.3-.19-.48-.236-.2-.043-.407-.072-.614-.1-.413-.052-.833-.091-1.252-.123-.837-.067-1.676-.113-2.518-.153-1.683-.079-3.366-.13-5.05-.174-3.371-.084-6.74-.132-10.11-.166-6.743-.068-13.486-.083-20.229-.082q-20.229.012-40.455.2-40.456.326-80.905.9-80.9,1.08-161.793,2.48-161.785,2.681-323.553,5.925h-.063l-.06-.007L1048.07,691.226,687.1,648.59l.142.006L347.123,659.737l.151-.022Z" transform="translate(0.094 744.983)" fill="#414141"/><path d="M.884,756.334l348.325-85.577.067-.015.072,0,339.46-10.465h.065l.065.007,360.9,38.856,360.84,39.116-.113-.006q161.452-2.822,322.914-5.192,80.732-1.183,161.477-2,40.37-.4,80.745-.646,20.188-.1,40.375-.092,10.094.019,20.188.119c3.364.039,6.728.089,10.09.173,1.682.045,3.362.1,5.043.172.837.038,1.677.082,2.515.145.416.03.835.068,1.25.116.206.024.415.052.617.09.177.046.469.063.5.219-.03-.157-.322-.172-.5-.217-.206-.039-.411-.066-.617-.09-.415-.047-.834-.084-1.252-.113-.835-.06-1.676-.1-2.515-.14-1.679-.072-3.36-.12-5.041-.159-3.362-.076-6.726-.12-10.09-.152-6.729-.062-13.458-.073-20.189-.071q-20.188.011-40.372.183-40.37.3-80.739.829L1733.5,733.7q-161.46,2.463-322.9,5.442h-.058l-.057-.006-360.9-38.835L688.736,661.211l.13,0-339.475,10.2.137-.019Z" transform="translate(0.094 747.334)" fill="#414141"/><path d="M.884,760.265l350.608-77.83.06-.013.067,0L690.435,672.9l.06,0,.06.006,360.766,35.314,360.715,35.572-.1,0q161.121-2.561,322.26-4.708,80.572-1.076,161.149-1.81,40.289-.363,80.578-.579,20.146-.092,40.294-.079,10.071.018,20.145.109c3.358.037,6.715.083,10.072.16,1.676.039,3.355.085,5.029.155.842.034,1.677.075,2.513.13.417.029.835.062,1.25.106.208.022.415.047.619.083.178.044.467.049.514.2-.047-.152-.336-.155-.516-.2-.2-.034-.41-.058-.617-.079-.415-.044-.835-.076-1.25-.1-.837-.055-1.674-.093-2.513-.125-1.674-.066-3.354-.109-5.031-.145-3.357-.07-6.713-.108-10.07-.138q-10.071-.082-20.145-.063-20.148.014-40.29.17-40.289.279-80.574.763l-161.137,2.09q-161.134,2.244-322.252,4.959h-.053l-.049,0-360.773-35.291L690.37,673.833l.118,0L351.657,683.1l.125-.015Z" transform="translate(0.094 749.684)" fill="#414141"/><path d="M.884,764.2l352.89-70.082.057-.011.058,0,338.173-8.584.055,0,.053,0,360.636,31.77L1413.4,749.318l-.092,0q160.8-2.3,321.613-4.226,80.4-.97,160.819-1.614l80.414-.513,40.209-.065,20.1.1,10.05.145,5.022.14,2.51.117c.417.026.833.056,1.249.1.385.062.9.034,1.153.254-.256-.218-.771-.19-1.155-.253-.415-.038-.832-.067-1.249-.091l-2.508-.111-5.022-.129-10.05-.122-20.1-.056-40.209.158-80.409.7-160.809,1.894q-160.8,2.027-321.6,4.478h-.046l-.046,0L1052.6,718.46,692,686.453l.106,0-338.187,8.321.113-.013Z" transform="translate(0.094 752.034)" fill="#414141"/><path d="M.884,768.125l355.173-62.334.05-.008h.052l337.531-7.645h.048l.048,0,360.507,28.226L1414.76,754.85l-.084,0q160.479-2.037,320.964-3.744,80.243-.859,160.49-1.419l80.253-.445,40.125-.053,20.061.092,10.031.129,5.013.126,2.5.106,1.249.083a3,3,0,0,1,1.17.228,2.983,2.983,0,0,0-1.17-.224l-1.249-.081-2.5-.1-5.015-.114-10.03-.108-20.059-.046-40.125.145-80.246.626-160.483,1.7q-160.478,1.808-320.952,3.994h-.043l-.041,0-360.513-28.2L693.636,699.074l.1,0L356.189,706.46l.1-.011Z" transform="translate(0.094 754.385)" fill="#414141"/><path d="M.884,772.056l357.457-54.587.043-.006h.046l336.887-6.706h.043l.043,0L1055.78,735.44l360.34,24.944-.07,0,320.312-3.261q80.079-.751,160.163-1.224l80.086-.377,40.044-.042,20.021.084,10.01.115,5,.11,2.5.092,1.247.072a3.5,3.5,0,0,1,1.185.2,3.505,3.505,0,0,0-1.185-.2l-1.247-.07-2.5-.088-5-.1-10.009-.092-20.019-.038-40.041.132-80.084.561-160.156,1.5-320.3,3.512h-.036l-.038,0-360.381-24.661L695.27,711.7h.084l-336.9,6.444.088-.007Z" transform="translate(0.094 756.735)" fill="#414141"/><path d="M.884,775.985l359.738-46.837.039-.006h.038l336.244-5.767h.036l.038,0,360.249,21.14,360.216,21.4h-.062l319.663-2.778q79.918-.642,159.837-1.029l79.921-.309,39.962-.029,19.979.076,9.989.1,4.994.1,2.494.078a12.364,12.364,0,0,1,2.444.234,12.47,12.47,0,0,0-2.444-.228l-2.5-.075-4.993-.083-9.989-.077-19.979-.031-39.961.12-79.919.494-159.83,1.308-319.656,3.029h-.062l-360.251-21.118L696.9,724.316l.072,0-336.253,5.5.075,0Z" transform="translate(0.094 759.085)" fill="#414141"/><path d="M.884,779.915l362.023-39.089.029,0h.033l335.6-4.828h.062l360.121,17.6,360.092,17.857h-.053l319.016-2.294,159.513-.834,79.758-.243,39.879-.017,19.938.066,9.968.087,4.985.081a43.021,43.021,0,0,1,4.943.261,42.973,42.973,0,0,0-4.943-.25l-4.985-.069-9.968-.063-19.937-.021-39.879.107-79.755.426L1737.818,769.8l-319.008,2.546h-.053L1058.633,754.77l-360.1-17.834h.06L362.989,741.5l.063,0Z" transform="translate(0.094 761.435)" fill="#414141"/><path d="M.884,783.846l364.3-31.34.026,0h.026l334.96-3.888h.048l338.925,13.217,338.911,13.477,42.362,1.673,42.413-.261,84.865-.5,169.724-.936,169.729-.715,84.866-.2,42.433-.014,21.215.056,10.609.071,5.3.066c1.758.056,3.557,0,5.277.216-1.722-.206-3.519-.152-5.279-.2l-5.3-.055-10.607-.046-21.215-.006-42.432.109-84.864.4-169.725.988-169.723,1.07-84.862.57-42.447.3-42.372-1.639L1039.1,763.029,700.172,749.558h.048l-334.965,3.627.052,0Z" transform="translate(0.094 763.786)" fill="#414141"/><path d="M.884,787.772l366.587-23.59h.039l211.261-1.864,105.63-.931c17.613-.454,35.2.442,52.786.876l52.771,1.539,422.163,12.447,211.064,6.261,211.262-.912,211.268-.737,105.634-.2,52.817-.025,26.408.038,13.2.056c4.4.059,8.817-.008,13.19.231-4.374-.23-8.8-.153-13.19-.2l-13.2-.025-26.408.021-52.817.147-105.631.443-211.264.981L1423.195,783.4l-211.1-6.095-422.16-12.492-52.769-1.58c-17.593-.447-35.175-1.358-52.783-.918l-105.62.849-211.244,1.7h.038Z" transform="translate(0.094 766.14)" fill="#414141"/><path d="M.884,791.707,257.55,780.628l64.17-2.726,32.085-1.362,16.043-.676,16.071-.1,128.574-.775,128.577-.775,32.143-.193,16.073-.1,8.036-.049,4.018-.025,4.016.075,64.26,1.241,257.042,4.962L1285.7,785.3l128.521,2.582,8.031.16c2.658.024,5.351-.006,8.026-.007l16.07-.046,32.142-.094,64.285-.178,257.14-.635,128.573-.142,64.284-.016,32.144.03c10.715.052,21.436-.026,32.138.214-10.7-.215-21.427-.113-32.137-.14l-32.145.044-64.284.164-128.569.437-257.138.846-64.284.229-32.144.119-16.071.059c-2.682,0-5.347.034-8.045.014l-8.035-.156-128.519-2.48-257.042-4.965L771.6,776.169l-64.26-1.291-4.016-.078-4.016.021-8.037.042-16.069.084-32.138.168-128.557.674-128.559.674-16.071.084-16.042.664-32.085,1.335-64.17,2.668Z" transform="translate(0.094 768.486)" fill="#414141"/><path d="M.884,795.634l256.94-5.657,64.238-1.372,32.119-.683,16.06-.342c5.352-.082,10.71-.054,16.065-.084l128.533-.413,128.535-.413,64.267-.174,64.26.609,257.038,2.432,257.036,2.631,128.518,1.317c10.71.167,21.411.062,32.126.072l32.134-.04,64.265-.076c171.374-.18,342.751-.495,514.123-.077-42.844-.133-85.688.052-128.528.107l-128.533.293-257.06.476-64.265.128-32.133.065c-10.7,0-21.428.111-32.136-.047l-128.52-1.215-257.036-2.434L771.894,788.1l-64.26-.658-64.261.122-128.525.313-128.526.312c-5.354.027-10.711-.006-16.065.071l-16.058.33-32.119.657-64.236,1.312Z" transform="translate(0.094 770.84)" fill="#414141"/><path d="M.884,799.588l514.085-.4,514.086-.2,514.085.2,514.086.4-514.086.4-514.085.2-514.086-.2Z" transform="translate(0.094 773.166)" fill="#414141"/></g></g></g></svg>